<svg width="266" height="73" viewBox="0 0 266 73" fill="none" xmlns="http://www.w3.org/2000/svg">
<path d="M103.672 38.1055C103.023 36.9153 102.13 36.0091 100.994 35.3869C99.8582 34.7647 98.5327 34.4537 97.0179 34.4537C95.3407 34.4537 93.8529 34.8324 92.5545 35.5898C91.256 36.3472 90.2416 37.4292 89.5112 38.8359C88.7809 40.2425 88.4157 41.8656 88.4157 43.705C88.4157 45.5986 88.7809 47.2487 89.5112 48.6553C90.2687 50.062 91.3101 51.144 92.6356 51.9015C93.9611 52.6589 95.503 53.0376 97.2613 53.0376C99.4254 53.0376 101.197 52.4695 102.577 51.3334C103.956 50.1702 104.863 48.5607 105.295 46.5048H95.5571V42.1631H110.895V47.1135C110.516 49.0882 109.705 50.9141 108.46 52.5912C107.216 54.2684 105.606 55.6209 103.632 56.6489C101.684 57.6498 99.493 58.1502 97.0584 58.1502C94.3263 58.1502 91.8511 57.5416 89.633 56.3243C87.4418 55.0799 85.7106 53.3622 84.4392 51.1711C83.1949 48.98 82.5727 46.4913 82.5727 43.705C82.5727 40.9188 83.1949 38.4301 84.4392 36.239C85.7106 34.0208 87.4418 32.3031 89.633 31.0858C91.8511 29.8415 94.3128 29.2193 97.0179 29.2193C100.21 29.2193 102.983 30.0038 105.336 31.5727C107.689 33.1146 109.312 35.2922 110.205 38.1055H103.672ZM120.778 38.917C121.509 37.7268 122.456 36.7936 123.619 36.1173C124.809 35.441 126.162 35.1029 127.676 35.1029V41.0676H126.175C124.39 41.0676 123.037 41.4869 122.117 42.3255C121.225 43.164 120.778 44.6248 120.778 46.7077V57.9067H115.098V35.4275H120.778V38.917ZM130.042 46.586C130.042 44.3137 130.488 42.2984 131.381 40.5401C132.301 38.7818 133.531 37.4292 135.073 36.4825C136.642 35.5357 138.387 35.0623 140.308 35.0623C141.985 35.0623 143.446 35.4004 144.69 36.0767C145.961 36.753 146.976 37.6051 147.733 38.633V35.4275H153.454V57.9067H147.733V54.6201C147.003 55.675 145.988 56.5542 144.69 57.2575C143.419 57.9338 141.944 58.2719 140.267 58.2719C138.374 58.2719 136.642 57.785 135.073 56.8112C133.531 55.8373 132.301 54.4713 131.381 52.713C130.488 50.9276 130.042 48.8853 130.042 46.586ZM147.733 46.6671C147.733 45.2875 147.463 44.1108 146.922 43.137C146.381 42.1361 145.65 41.3787 144.73 40.8647C143.811 40.3237 142.823 40.0532 141.768 40.0532C140.713 40.0532 139.74 40.3102 138.847 40.8241C137.954 41.3381 137.224 42.0955 136.656 43.0964C136.115 44.0702 135.844 45.2334 135.844 46.586C135.844 47.9385 136.115 49.1287 136.656 50.1567C137.224 51.1576 137.954 51.9285 138.847 52.4695C139.767 53.0105 140.74 53.281 141.768 53.281C142.823 53.281 143.811 53.0241 144.73 52.5101C145.65 51.9691 146.381 51.2117 146.922 50.2378C147.463 49.2369 147.733 48.0467 147.733 46.6671ZM168.376 52.6724L174.056 35.4275H180.102L171.784 57.9067H164.886L156.609 35.4275H162.695L168.376 52.6724ZM186.174 32.7495C185.173 32.7495 184.334 32.4384 183.658 31.8162C183.009 31.167 182.684 30.369 182.684 29.4222C182.684 28.4754 183.009 27.6909 183.658 27.0688C184.334 26.4196 185.173 26.0949 186.174 26.0949C187.175 26.0949 188 26.4196 188.649 27.0688C189.325 27.6909 189.663 28.4754 189.663 29.4222C189.663 30.369 189.325 31.167 188.649 31.8162C188 32.4384 187.175 32.7495 186.174 32.7495ZM188.974 35.4275V57.9067H183.293V35.4275H188.974ZM201.2 40.0938V50.9682C201.2 51.7256 201.376 52.2802 201.727 52.6318C202.106 52.9564 202.728 53.1187 203.594 53.1187H206.231V57.9067H202.661C197.873 57.9067 195.479 55.5804 195.479 50.9276V40.0938H192.801V35.4275H195.479V29.8685H201.2V35.4275H206.231V40.0938H201.2ZM231.823 35.4275L217.905 68.5377H211.859L216.728 57.3387L207.72 35.4275H214.091L219.893 51.1305L225.777 35.4275H231.823Z" fill="white"/>
<path d="M251.846 57.9067L245.719 48.3713L240.16 57.9067H233.749L242.676 43.6239L233.627 29.5845H240.16L246.287 39.0793L251.805 29.5845H258.216L249.33 43.8268L258.379 57.9067H251.846Z" fill="#5CE1E6"/>
<path d="M36.0678 0C28.9343 -8.50666e-08 21.9609 2.11534 16.0296 6.07852C10.0983 10.0417 5.47539 15.6747 2.7455 22.2652C0.0156126 28.8558 -0.698651 36.1078 0.693031 43.1043C2.08471 50.1007 5.51984 56.5274 10.564 61.5716C15.6082 66.6157 22.0348 70.0509 29.0313 71.4426C36.0278 72.8342 43.2798 72.12 49.8703 69.3901C56.4609 66.6602 62.0939 62.0373 66.0571 56.106C70.0202 50.1747 72.1356 43.2013 72.1356 36.0678L54.1017 36.0678C54.1017 39.6346 53.044 43.1212 51.0624 46.0869C49.0808 49.0526 46.2643 51.364 42.9691 52.7289C39.6738 54.0939 36.0478 54.451 32.5495 53.7552C29.0513 53.0593 25.838 51.3418 23.3159 48.8197C20.7938 46.2976 19.0763 43.0843 18.3804 39.586C17.6846 36.0878 18.0417 32.4618 19.4066 29.1665C20.7716 25.8713 23.083 23.0547 26.0487 21.0732C29.0144 19.0916 32.501 18.0339 36.0678 18.0339V0Z" fill="white"/>
<path d="M36.0678 0C31.3313 -5.64821e-08 26.6412 0.932921 22.2652 2.7455C17.8893 4.55807 13.9132 7.21481 10.564 10.564C7.21481 13.9132 4.55807 17.8893 2.7455 22.2653C0.93292 26.6412 -7.1519e-07 31.3313 0 36.0678H18.0339C18.0339 33.6996 18.5004 31.3545 19.4066 29.1665C20.3129 26.9785 21.6413 24.9905 23.3159 23.3159C24.9905 21.6413 26.9785 20.3129 29.1665 19.4066C31.3545 18.5004 33.6996 18.0339 36.0678 18.0339V0Z" fill="#5CE1E6"/>
<circle cx="36.0678" cy="36.0678" r="11.2712" fill="#5CE1E6"/>
<path d="M47.339 36.0678C47.339 34.5877 47.0474 33.122 46.481 31.7545C45.9146 30.387 45.0843 29.1445 44.0377 28.0979C42.9911 27.0513 41.7486 26.221 40.3811 25.6546C39.0136 25.0882 37.5479 24.7966 36.0678 24.7966C34.5876 24.7966 33.122 25.0882 31.7545 25.6546C30.387 26.221 29.1445 27.0513 28.0979 28.0979C27.0512 29.1445 26.221 30.387 25.6546 31.7545C25.0881 33.122 24.7966 34.5877 24.7966 36.0678L36.0678 36.0678H47.339Z" fill="white"/>
</svg>
